<?xml version="1.0" encoding="UTF-8" standalone="no"?>
<!DOCTYPE svg PUBLIC "-//W3C//DTD SVG 1.1//EN"
 "http://www.w3.org/Graphics/SVG/1.1/DTD/svg11.dtd">
<!-- Generated by graphviz version 2.40.1 (20161225.0304)
 -->
<!-- Title: mapa_resultado Pages: 1 -->
<svg width="1877pt" height="522pt"
 viewBox="0.00 0.00 1877.37 522.46" xmlns="http://www.w3.org/2000/svg" xmlns:xlink="http://www.w3.org/1999/xlink">
<g id="graph0" class="graph" transform="scale(1 1) rotate(0) translate(4 518.4632)">
<title>mapa_resultado</title>
<polygon fill="#ffffff" stroke="transparent" points="-4,4 -4,-518.4632 1873.3728,-518.4632 1873.3728,4 -4,4"/>
<!-- Cuiaba &#45; MT -->
<g id="node1" class="node">
<title>Cuiaba &#45; MT</title>
<ellipse fill="none" stroke="#b2dfee" cx="1804.4552" cy="-428.9528" rx="60.8402" ry="60.8402"/>
<ellipse fill="none" stroke="#b2dfee" cx="1804.4552" cy="-428.9528" rx="64.8352" ry="64.8352"/>
<text text-anchor="middle" x="1804.4552" y="-424.7528" font-family="Times,serif" font-size="14.00" fill="#000000">Cuiaba &#45; MT</text>
</g>
<!-- Goiania &#45; GO -->
<g id="node2" class="node">
<title>Goiania &#45; GO</title>
<ellipse fill="none" stroke="#b2dfee" cx="1247.3324" cy="-416.2373" rx="63.6778" ry="63.6778"/>
<ellipse fill="none" stroke="#b2dfee" cx="1247.3324" cy="-416.2373" rx="67.6832" ry="67.6832"/>
<text text-anchor="middle" x="1247.3324" y="-412.0373" font-family="Times,serif" font-size="14.00" fill="#000000">Goiania &#45; GO</text>
</g>
<!-- Cuiaba &#45; MT&#45;&gt;Goiania &#45; GO -->
<g id="edge1" class="edge">
<title>Cuiaba &#45; MT&#45;&gt;Goiania &#45; GO</title>
<path fill="none" stroke="#000000" d="M1739.4558,-427.4693C1633.1087,-425.0421 1422.9764,-420.2461 1314.9518,-417.7806"/>
<text text-anchor="middle" x="1516.7038" y="-426.825" font-family="Times,serif" font-size="14.00" fill="#000000">895</text>
</g>
<!-- Campo Grande &#45; MS -->
<g id="node3" class="node">
<title>Campo Grande &#45; MS</title>
<ellipse fill="none" stroke="#b2dfee" cx="1505.7105" cy="-95.7589" rx="91.5285" ry="91.5285"/>
<ellipse fill="none" stroke="#b2dfee" cx="1505.7105" cy="-95.7589" rx="95.5184" ry="95.5184"/>
<text text-anchor="middle" x="1505.7105" y="-91.5589" font-family="Times,serif" font-size="14.00" fill="#000000">Campo Grande &#45; MS</text>
</g>
<!-- Cuiaba &#45; MT&#45;&gt;Campo Grande &#45; MS -->
<g id="edge2" class="edge">
<title>Cuiaba &#45; MT&#45;&gt;Campo Grande &#45; MS</title>
<path fill="none" stroke="#000000" d="M1764.6844,-377.2137C1715.9624,-319.641 1632.7571,-226.48 1573.7959,-163.23"/>
<text text-anchor="middle" x="1658.7401" y="-257.6219" font-family="Times,serif" font-size="14.00" fill="#000000">707</text>
</g>
<!-- Goiania &#45; GO&#45;&gt;Campo Grande &#45; MS -->
<g id="edge3" class="edge">
<title>Goiania &#45; GO&#45;&gt;Campo Grande &#45; MS</title>
<path fill="none" stroke="#000000" d="M1293.721,-366.9103C1337.6363,-315.4413 1403.5275,-234.0588 1450.2034,-173.8539"/>
<text text-anchor="middle" x="1361.4622" y="-274.5821" font-family="Times,serif" font-size="14.00" fill="#000000">846</text>
</g>
<!-- Goiania &#45; GO&#45;&gt;Campo Grande &#45; MS -->
<g id="edge14" class="edge">
<title>Goiania &#45; GO&#45;&gt;Campo Grande &#45; MS</title>
<path fill="none" stroke="#ff0000" d="M1285.697,-360.4411C1324.8383,-309.0259 1386.393,-232.2329 1434.4754,-174.5729"/>
<polygon fill="#ff0000" stroke="#ff0000" points="1437.4384,-176.4856 1441.1669,-166.5685 1432.0678,-171.9959 1437.4384,-176.4856"/>
</g>
<!-- Belo Horizonte &#45; MG -->
<g id="node4" class="node">
<title>Belo Horizonte &#45; MG</title>
<ellipse fill="none" stroke="#b2dfee" cx="618.0001" cy="-416.5624" rx="93.8058" ry="93.8058"/>
<ellipse fill="none" stroke="#b2dfee" cx="618.0001" cy="-416.5624" rx="97.8017" ry="97.8017"/>
<text text-anchor="middle" x="618.0001" y="-412.3624" font-family="Times,serif" font-size="14.00" fill="#000000">Belo Horizonte &#45; MG</text>
</g>
<!-- Goiania &#45; GO&#45;&gt;Belo Horizonte &#45; MG -->
<g id="edge4" class="edge">
<title>Goiania &#45; GO&#45;&gt;Belo Horizonte &#45; MG</title>
<path fill="none" stroke="#000000" d="M1179.6841,-416.2723C1068.0956,-416.3299 844.9936,-416.4452 716.0846,-416.5118"/>
<text text-anchor="middle" x="937.3844" y="-420.592" font-family="Times,serif" font-size="14.00" fill="#000000">890</text>
</g>
<!-- Campo Grande &#45; MS&#45;&gt;Cuiaba &#45; MT -->
<g id="edge15" class="edge">
<title>Campo Grande &#45; MS&#45;&gt;Cuiaba &#45; MT</title>
<path fill="none" stroke="#ff0000" d="M1565.5866,-171.014C1619.5805,-233.625 1698.2294,-321.1147 1750.365,-376.4146"/>
<polygon fill="#ff0000" stroke="#ff0000" points="1748.1251,-379.1397 1757.5403,-383.998 1753.2098,-374.3286 1748.1251,-379.1397"/>
<text text-anchor="middle" x="1643.9758" y="-277.9143" font-family="Times,serif" font-size="14.00" fill="#000000">3934</text>
</g>
<!-- Sao Paulo &#45; SP -->
<g id="node5" class="node">
<title>Sao Paulo &#45; SP</title>
<ellipse fill="none" stroke="#b2dfee" cx="932.9379" cy="-101.7967" rx="68.9085" ry="68.9085"/>
<ellipse fill="none" stroke="#b2dfee" cx="932.9379" cy="-101.7967" rx="72.92" ry="72.92"/>
<text text-anchor="middle" x="932.9379" y="-97.5967" font-family="Times,serif" font-size="14.00" fill="#000000">Sao Paulo &#45; SP</text>
</g>
<!-- Campo Grande &#45; MS&#45;&gt;Sao Paulo &#45; SP -->
<g id="edge5" class="edge">
<title>Campo Grande &#45; MS&#45;&gt;Sao Paulo &#45; SP</title>
<path fill="none" stroke="#000000" d="M1409.8413,-96.7695C1295.9899,-97.9697 1108.6197,-99.9448 1005.9059,-101.0275"/>
<text text-anchor="middle" x="1193.8736" y="-103.0985" font-family="Times,serif" font-size="14.00" fill="#000000">1013</text>
</g>
<!-- Rio de Janeiro &#45; RJ -->
<g id="node6" class="node">
<title>Rio de Janeiro &#45; RJ</title>
<ellipse fill="none" stroke="#b2dfee" cx="360.078" cy="-95.3448" rx="85.1096" ry="85.1096"/>
<ellipse fill="none" stroke="#b2dfee" cx="360.078" cy="-95.3448" rx="89.1121" ry="89.1121"/>
<text text-anchor="middle" x="360.078" y="-91.1448" font-family="Times,serif" font-size="14.00" fill="#000000">Rio de Janeiro &#45; RJ</text>
</g>
<!-- Belo Horizonte &#45; MG&#45;&gt;Rio de Janeiro &#45; RJ -->
<g id="edge11" class="edge">
<title>Belo Horizonte &#45; MG&#45;&gt;Rio de Janeiro &#45; RJ</title>
<path fill="none" stroke="#ff0000" d="M556.549,-340.0309C516.0283,-289.5662 463.1237,-223.6785 422.4226,-172.9891"/>
<polygon fill="#ff0000" stroke="#ff0000" points="424.989,-170.5951 415.9989,-164.989 419.5308,-174.9778 424.989,-170.5951"/>
</g>
<!-- Vitoria &#45; ES -->
<g id="node7" class="node">
<title>Vitoria &#45; ES</title>
<ellipse fill="none" stroke="#b2dfee" cx="61.6998" cy="-429.0902" rx="57.8873" ry="57.8873"/>
<ellipse fill="none" stroke="#b2dfee" cx="61.6998" cy="-429.0902" rx="61.9003" ry="61.9003"/>
<text text-anchor="middle" x="61.6998" y="-424.8902" font-family="Times,serif" font-size="14.00" fill="#000000">Vitoria &#45; ES</text>
</g>
<!-- Belo Horizonte &#45; MG&#45;&gt;Vitoria &#45; ES -->
<g id="edge8" class="edge">
<title>Belo Horizonte &#45; MG&#45;&gt;Vitoria &#45; ES</title>
<path fill="none" stroke="#000000" d="M520.0256,-413.4821C405.4021,-413.8574 219.1206,-418.3377 123.1584,-423.2754"/>
<text text-anchor="middle" x="311.092" y="-422.5788" font-family="Times,serif" font-size="14.00" fill="#000000">523</text>
</g>
<!-- Sao Paulo &#45; SP&#45;&gt;Goiania &#45; GO -->
<g id="edge13" class="edge">
<title>Sao Paulo &#45; SP&#45;&gt;Goiania &#45; GO</title>
<path fill="none" stroke="#ff0000" d="M984.5017,-153.3681C1041.6362,-210.5109 1133.421,-302.3092 1192.0201,-360.9169"/>
<polygon fill="#ff0000" stroke="#ff0000" points="1189.8059,-363.6524 1199.3515,-368.2494 1194.756,-358.703 1189.8059,-363.6524"/>
</g>
<!-- Sao Paulo &#45; SP&#45;&gt;Belo Horizonte &#45; MG -->
<g id="edge7" class="edge">
<title>Sao Paulo &#45; SP&#45;&gt;Belo Horizonte &#45; MG</title>
<path fill="none" stroke="#000000" d="M881.285,-153.4214C828.4098,-206.2678 745.9088,-288.7237 687.365,-347.2355"/>
<text text-anchor="middle" x="773.825" y="-254.5284" font-family="Times,serif" font-size="14.00" fill="#000000">592</text>
</g>
<!-- Sao Paulo &#45; SP&#45;&gt;Rio de Janeiro &#45; RJ -->
<g id="edge6" class="edge">
<title>Sao Paulo &#45; SP&#45;&gt;Rio de Janeiro &#45; RJ</title>
<path fill="none" stroke="#000000" d="M860.1468,-96.2961C755.4563,-92.4893 562.5553,-90.1912 449.3836,-91.2933"/>
<text text-anchor="middle" x="644.2652" y="-97.9947" font-family="Times,serif" font-size="14.00" fill="#000000">441</text>
</g>
<!-- Rio de Janeiro &#45; RJ&#45;&gt;Sao Paulo &#45; SP -->
<g id="edge12" class="edge">
<title>Rio de Janeiro &#45; RJ&#45;&gt;Sao Paulo &#45; SP</title>
<path fill="none" stroke="#ff0000" d="M449.216,-101.405C558.8634,-104.9449 743.5341,-106.9778 850.1746,-105.7797"/>
<polygon fill="#ff0000" stroke="#ff0000" points="850.2906,-109.2787 860.2459,-105.6537 850.2029,-102.2792 850.2906,-109.2787"/>
</g>
<!-- Rio de Janeiro &#45; RJ&#45;&gt;Vitoria &#45; ES -->
<g id="edge9" class="edge">
<title>Rio de Janeiro &#45; RJ&#45;&gt;Vitoria &#45; ES</title>
<path fill="none" stroke="#000000" d="M300.4139,-162.081C241.9108,-227.5186 154.2619,-325.5566 103.0411,-382.8487"/>
<text text-anchor="middle" x="191.2275" y="-276.6649" font-family="Times,serif" font-size="14.00" fill="#000000">527</text>
</g>
<!-- Vitoria &#45; ES&#45;&gt;Belo Horizonte &#45; MG -->
<g id="edge10" class="edge">
<title>Vitoria &#45; ES&#45;&gt;Belo Horizonte &#45; MG</title>
<path fill="none" stroke="#ff0000" d="M123.459,-432.1331C216.747,-432.7245 394.8974,-429.0597 509.9733,-424.4701"/>
<polygon fill="#ff0000" stroke="#ff0000" points="510.3673,-427.957 520.2162,-424.0521 510.0818,-420.9628 510.3673,-427.957"/>
</g>
</g>
</svg>
