<?xml version="1.0" encoding="UTF-8" standalone="no"?>
<!DOCTYPE svg PUBLIC "-//W3C//DTD SVG 1.1//EN"
 "http://www.w3.org/Graphics/SVG/1.1/DTD/svg11.dtd">
<!-- Generated by graphviz version 2.40.1 (20161225.0304)
 -->
<!-- Title: mapa_resultado Pages: 1 -->
<svg width="1748pt" height="664pt"
 viewBox="0.00 0.00 1748.21 663.82" xmlns="http://www.w3.org/2000/svg" xmlns:xlink="http://www.w3.org/1999/xlink">
<g id="graph0" class="graph" transform="scale(1 1) rotate(0) translate(4 659.8168)">
<title>mapa_resultado</title>
<polygon fill="#ffffff" stroke="transparent" points="-4,4 -4,-659.8168 1744.2067,-659.8168 1744.2067,4 -4,4"/>
<!-- Cuiaba &#45; MT -->
<g id="node1" class="node">
<title>Cuiaba &#45; MT</title>
<ellipse fill="none" stroke="#b2dfee" cx="1675.2891" cy="-318.9666" rx="60.8402" ry="60.8402"/>
<ellipse fill="none" stroke="#b2dfee" cx="1675.2891" cy="-318.9666" rx="64.8352" ry="64.8352"/>
<text text-anchor="middle" x="1675.2891" y="-314.7666" font-family="Times,serif" font-size="14.00" fill="#000000">Cuiaba &#45; MT</text>
</g>
<!-- Goiania &#45; GO -->
<g id="node2" class="node">
<title>Goiania &#45; GO</title>
<ellipse fill="none" stroke="#b2dfee" cx="1243.8922" cy="-529.0982" rx="63.6778" ry="63.6778"/>
<ellipse fill="none" stroke="#b2dfee" cx="1243.8922" cy="-529.0982" rx="67.6832" ry="67.6832"/>
<text text-anchor="middle" x="1243.8922" y="-524.8982" font-family="Times,serif" font-size="14.00" fill="#000000">Goiania &#45; GO</text>
</g>
<!-- Cuiaba &#45; MT&#45;&gt;Goiania &#45; GO -->
<g id="edge1" class="edge">
<title>Cuiaba &#45; MT&#45;&gt;Goiania &#45; GO</title>
<path fill="none" stroke="#000000" d="M1614.5569,-343.2069C1531.7626,-380.6744 1384.4725,-452.3923 1302.6947,-495.0341"/>
<text text-anchor="middle" x="1448.1258" y="-423.3205" font-family="Times,serif" font-size="14.00" fill="#000000">895</text>
</g>
<!-- Cuiaba &#45; MT&#45;&gt;Goiania &#45; GO -->
<g id="edge10" class="edge">
<title>Cuiaba &#45; MT&#45;&gt;Goiania &#45; GO</title>
<path fill="none" stroke="#ff0000" d="M1618.7632,-351.8424C1541.132,-392.4141 1401.5079,-460.5486 1316.3096,-499.5391"/>
<polygon fill="#ff0000" stroke="#ff0000" points="1314.6118,-496.4664 1306.9636,-503.7981 1317.5147,-502.8361 1314.6118,-496.4664"/>
</g>
<!-- Campo Grande &#45; MS -->
<g id="node3" class="node">
<title>Campo Grande &#45; MS</title>
<ellipse fill="none" stroke="#b2dfee" cx="1242.5826" cy="-109.1895" rx="91.5285" ry="91.5285"/>
<ellipse fill="none" stroke="#b2dfee" cx="1242.5826" cy="-109.1895" rx="95.5184" ry="95.5184"/>
<text text-anchor="middle" x="1242.5826" y="-104.9895" font-family="Times,serif" font-size="14.00" fill="#000000">Campo Grande &#45; MS</text>
</g>
<!-- Cuiaba &#45; MT&#45;&gt;Campo Grande &#45; MS -->
<g id="edge2" class="edge">
<title>Cuiaba &#45; MT&#45;&gt;Campo Grande &#45; MS</title>
<path fill="none" stroke="#000000" d="M1616.4821,-290.4568C1542.3073,-254.4967 1414.172,-192.3764 1328.8935,-151.0332"/>
<text text-anchor="middle" x="1462.1878" y="-224.945" font-family="Times,serif" font-size="14.00" fill="#000000">707</text>
</g>
<!-- Goiania &#45; GO&#45;&gt;Campo Grande &#45; MS -->
<g id="edge3" class="edge">
<title>Goiania &#45; GO&#45;&gt;Campo Grande &#45; MS</title>
<path fill="none" stroke="#000000" d="M1243.6804,-461.166C1243.4639,-391.7633 1243.1259,-283.3836 1242.8821,-205.2196"/>
<text text-anchor="middle" x="1232.7812" y="-337.3928" font-family="Times,serif" font-size="14.00" fill="#000000">846</text>
</g>
<!-- Belo Horizonte &#45; MG -->
<g id="node4" class="node">
<title>Belo Horizonte &#45; MG</title>
<ellipse fill="none" stroke="#b2dfee" cx="645.8668" cy="-557.916" rx="93.8058" ry="93.8058"/>
<ellipse fill="none" stroke="#b2dfee" cx="645.8668" cy="-557.916" rx="97.8017" ry="97.8017"/>
<text text-anchor="middle" x="645.8668" y="-553.716" font-family="Times,serif" font-size="14.00" fill="#000000">Belo Horizonte &#45; MG</text>
</g>
<!-- Goiania &#45; GO&#45;&gt;Belo Horizonte &#45; MG -->
<g id="edge4" class="edge">
<title>Goiania &#45; GO&#45;&gt;Belo Horizonte &#45; MG</title>
<path fill="none" stroke="#000000" d="M1176.2388,-527.8898C1070.4126,-530.186 865.2502,-539.8437 743.4452,-548.0593"/>
<text text-anchor="middle" x="949.342" y="-542.1745" font-family="Times,serif" font-size="14.00" fill="#000000">890</text>
</g>
<!-- Goiania &#45; GO&#45;&gt;Belo Horizonte &#45; MG -->
<g id="edge11" class="edge">
<title>Goiania &#45; GO&#45;&gt;Belo Horizonte &#45; MG</title>
<path fill="none" stroke="#ff0000" d="M1176.6684,-536.8062C1073.9981,-544.4804 877.1156,-554.2587 754.1338,-558.0401"/>
<polygon fill="#ff0000" stroke="#ff0000" points="753.8318,-554.5474 743.9408,-558.3446 754.0409,-561.5443 753.8318,-554.5474"/>
</g>
<!-- Sao Paulo &#45; SP -->
<g id="node5" class="node">
<title>Sao Paulo &#45; SP</title>
<ellipse fill="none" stroke="#b2dfee" cx="644.7999" cy="-80.656" rx="68.9085" ry="68.9085"/>
<ellipse fill="none" stroke="#b2dfee" cx="644.7999" cy="-80.656" rx="72.92" ry="72.92"/>
<text text-anchor="middle" x="644.7999" y="-76.456" font-family="Times,serif" font-size="14.00" fill="#000000">Sao Paulo &#45; SP</text>
</g>
<!-- Campo Grande &#45; MS&#45;&gt;Sao Paulo &#45; SP -->
<g id="edge5" class="edge">
<title>Campo Grande &#45; MS&#45;&gt;Sao Paulo &#45; SP</title>
<path fill="none" stroke="#000000" d="M1147.1136,-99.5184C1027.6605,-91.4679 825.7181,-81.9974 717.8577,-79.5352"/>
<text text-anchor="middle" x="918.4857" y="-76.9268" font-family="Times,serif" font-size="14.00" fill="#000000">1013</text>
</g>
<!-- Vitoria &#45; ES -->
<g id="node7" class="node">
<title>Vitoria &#45; ES</title>
<ellipse fill="none" stroke="#b2dfee" cx="89.9508" cy="-549.9817" rx="57.8873" ry="57.8873"/>
<ellipse fill="none" stroke="#b2dfee" cx="89.9508" cy="-549.9817" rx="61.9003" ry="61.9003"/>
<text text-anchor="middle" x="89.9508" y="-545.7817" font-family="Times,serif" font-size="14.00" fill="#000000">Vitoria &#45; ES</text>
</g>
<!-- Belo Horizonte &#45; MG&#45;&gt;Vitoria &#45; ES -->
<g id="edge8" class="edge">
<title>Belo Horizonte &#45; MG&#45;&gt;Vitoria &#45; ES</title>
<path fill="none" stroke="#000000" d="M548.1543,-551.2355C433.8468,-547.4014 248.0343,-545.0309 151.9221,-546.4247"/>
<text text-anchor="middle" x="339.5382" y="-553.0301" font-family="Times,serif" font-size="14.00" fill="#000000">523</text>
</g>
<!-- Belo Horizonte &#45; MG&#45;&gt;Vitoria &#45; ES -->
<g id="edge12" class="edge">
<title>Belo Horizonte &#45; MG&#45;&gt;Vitoria &#45; ES</title>
<path fill="none" stroke="#ff0000" d="M548.0035,-561.8051C437.5422,-562.3559 260.4466,-559.6385 161.9507,-555.7256"/>
<polygon fill="#ff0000" stroke="#ff0000" points="161.9314,-552.2219 151.7954,-555.3058 161.6422,-559.2159 161.9314,-552.2219"/>
</g>
<!-- Sao Paulo &#45; SP&#45;&gt;Campo Grande &#45; MS -->
<g id="edge15" class="edge">
<title>Sao Paulo &#45; SP&#45;&gt;Campo Grande &#45; MS</title>
<path fill="none" stroke="#ff0000" d="M717.2829,-88.7204C821.9489,-96.3332 1016.058,-105.8299 1136.7524,-109.437"/>
<polygon fill="#ff0000" stroke="#ff0000" points="1136.6564,-112.9355 1146.7537,-109.727 1136.8594,-105.9385 1136.6564,-112.9355"/>
<text text-anchor="middle" x="913.0176" y="-103.2787" font-family="Times,serif" font-size="14.00" fill="#000000">4289</text>
</g>
<!-- Sao Paulo &#45; SP&#45;&gt;Belo Horizonte &#45; MG -->
<g id="edge7" class="edge">
<title>Sao Paulo &#45; SP&#45;&gt;Belo Horizonte &#45; MG</title>
<path fill="none" stroke="#000000" d="M644.9625,-153.4011C645.1457,-235.3377 645.4443,-368.9176 645.6479,-459.9796"/>
<text text-anchor="middle" x="634.8052" y="-310.8903" font-family="Times,serif" font-size="14.00" fill="#000000">592</text>
</g>
<!-- Rio de Janeiro &#45; RJ -->
<g id="node6" class="node">
<title>Rio de Janeiro &#45; RJ</title>
<ellipse fill="none" stroke="#b2dfee" cx="89.056" cy="-89.056" rx="85.1096" ry="85.1096"/>
<ellipse fill="none" stroke="#b2dfee" cx="89.056" cy="-89.056" rx="89.1121" ry="89.1121"/>
<text text-anchor="middle" x="89.056" y="-84.856" font-family="Times,serif" font-size="14.00" fill="#000000">Rio de Janeiro &#45; RJ</text>
</g>
<!-- Sao Paulo &#45; SP&#45;&gt;Rio de Janeiro &#45; RJ -->
<g id="edge6" class="edge">
<title>Sao Paulo &#45; SP&#45;&gt;Rio de Janeiro &#45; RJ</title>
<path fill="none" stroke="#000000" d="M572.0746,-77.0234C470.824,-75.9959 287.5391,-78.6389 178.1915,-82.595"/>
<text text-anchor="middle" x="364.6331" y="-84.0092" font-family="Times,serif" font-size="14.00" fill="#000000">441</text>
</g>
<!-- Rio de Janeiro &#45; RJ&#45;&gt;Sao Paulo &#45; SP -->
<g id="edge14" class="edge">
<title>Rio de Janeiro &#45; RJ&#45;&gt;Sao Paulo &#45; SP</title>
<path fill="none" stroke="#ff0000" d="M178.1149,-92.8188C283.9425,-93.4524 459.1018,-90.76 562.0699,-86.8806"/>
<polygon fill="#ff0000" stroke="#ff0000" points="562.2549,-90.3761 572.1109,-86.4892 561.9821,-83.3814 562.2549,-90.3761"/>
</g>
<!-- Rio de Janeiro &#45; RJ&#45;&gt;Vitoria &#45; ES -->
<g id="edge9" class="edge">
<title>Rio de Janeiro &#45; RJ&#45;&gt;Vitoria &#45; ES</title>
<path fill="none" stroke="#000000" d="M83.7653,-178.2109C82.0216,-269.4167 82.5225,-408.71 85.0587,-488.368"/>
<text text-anchor="middle" x="73.912" y="-337.4895" font-family="Times,serif" font-size="14.00" fill="#000000">527</text>
</g>
<!-- Vitoria &#45; ES&#45;&gt;Rio de Janeiro &#45; RJ -->
<g id="edge13" class="edge">
<title>Vitoria &#45; ES&#45;&gt;Rio de Janeiro &#45; RJ</title>
<path fill="none" stroke="#ff0000" d="M94.6053,-488.2882C96.7516,-411.4391 96.7901,-279.1753 94.9084,-188.0759"/>
<polygon fill="#ff0000" stroke="#ff0000" points="98.4061,-187.9305 94.6887,-178.0093 91.4078,-188.0833 98.4061,-187.9305"/>
</g>
</g>
</svg>
